<?xml version="1.0" encoding="UTF-8"?>
<svg xmlns="http://www.w3.org/2000/svg" viewBox="0 0 666.28 419.82">
  <defs>
    <style>
      .cls-1 {
        letter-spacing: -.03em;
      }

      .cls-2, .cls-3 {
        stroke-width: 0px;
      }

      .cls-2, .cls-4 {
        fill: #676f9d;
      }

      .cls-3 {
        fill: none;
      }

      .cls-5 {
        letter-spacing: -.03em;
      }

      .cls-4 {
        font-family: RalewayRoman-Regular, Raleway;
        font-size: 84px;
        font-variation-settings: 'wght' 400;
      }
    </style>
  </defs>
  <g id="Piggy_Bank" data-name="Piggy Bank">
    <g>
      <path class="cls-3" d="m219.81,2.85c-25.22,0-45.66,20.44-45.66,45.66,0,.39.05.77.06,1.16,22.32,4.55,39.89,22.13,44.45,44.45.39,0,.76.06,1.16.06,25.22,0,45.66-20.44,45.66-45.66S245.03,2.85,219.81,2.85Z"/>
      <path class="cls-2" d="m219.81,97.03c-.29,0-.57-.02-.86-.04-1.55-.11-2.98-1.45-2.9-3,.08-1.55,1.18-2.73,2.69-2.73.05,0,.6.03.66.04,24.04,0,43.22-19.2,43.22-42.78S243.41,5.71,219.81,5.71s-42.81,19.2-42.81,42.81c0,.05.06,1.06.06,1.11.02,1.58-1.24,2.87-2.81,2.9-1.64-.03-2.87-1.24-2.89-2.81l-.06-1.2c0-26.75,21.77-48.51,48.51-48.51s48.51,21.76,48.51,48.51-21.77,48.51-48.51,48.51Z"/>
      <path class="cls-2" d="m219.81,37.1c-1.58,0-2.85-1.28-2.85-2.85v-8.56c0-1.58,1.28-2.85,2.85-2.85s2.85,1.28,2.85,2.85v8.56c0,1.58-1.28,2.85-2.85,2.85Z"/>
      <path class="cls-2" d="m219.81,74.2c-1.58,0-2.85-1.28-2.85-2.85v-8.56c0-1.58,1.28-2.85,2.85-2.85s2.85,1.28,2.85,2.85v8.56c0,1.58-1.28,2.85-2.85,2.85Z"/>
      <path class="cls-2" d="m224.09,65.64h-15.7c-1.58,0-2.85-1.28-2.85-2.85s1.28-2.85,2.85-2.85h15.7c2.36,0,4.28-1.92,4.28-4.28s-1.92-4.28-4.28-4.28h-8.56c-5.51,0-9.99-4.48-9.99-9.99s4.48-9.99,9.99-9.99h12.84c1.58,0,2.85,1.28,2.85,2.85s-1.28,2.85-2.85,2.85h-12.84c-2.36,0-4.28,1.92-4.28,4.28s1.92,4.28,4.28,4.28h8.56c5.51,0,9.99,4.48,9.99,9.99s-4.48,9.99-9.99,9.99Z"/>
      <path class="cls-2" d="m226.94,333.89h-17.12c-9.44,0-17.12-7.68-17.12-17.12v-5.71h-59.93v5.71c0,9.44-7.68,17.12-17.12,17.12h-17.12c-9.44,0-17.12-7.68-17.12-17.12v-15.8c-27.21-13.03-47.64-37.83-55.16-66.96h-9.05C7.75,234.01.07,226.33.07,216.88v-17.12c0-9.44,7.68-17.12,17.12-17.12h9.05c8.12-31.49,30.66-57.23,60.87-69.47v-33.27c0-1.58,1.28-2.85,2.85-2.85h5.64c5.5,0,10.82,1.47,15.79,4.38,1.36.79,1.82,2.54,1.02,3.9-.79,1.36-2.53,1.82-3.9,1.02-4.09-2.39-8.43-3.6-12.91-3.6h-2.78v32.36c0,1.18-.73,2.24-1.83,2.66-30.07,11.52-52.4,37.08-59.73,68.36-.3,1.29-1.45,2.2-2.78,2.2h-11.28c-6.3,0-11.41,5.12-11.41,11.41v17.12c0,6.3,5.12,11.41,11.41,11.41h11.28c1.33,0,2.48.91,2.78,2.2,6.79,28.97,27.04,53.66,54.18,66.05,1.02.47,1.67,1.48,1.67,2.6v17.62c0,6.3,5.12,11.41,11.41,11.41h17.12c6.3,0,11.41-5.12,11.41-11.41v-8.56c0-1.58,1.28-2.85,2.85-2.85h65.64c1.58,0,2.85,1.28,2.85,2.85v8.56c0,6.3,5.12,11.41,11.41,11.41h17.12c6.29,0,11.41-5.12,11.41-11.41v-17.62c0-1.12.65-2.13,1.67-2.6,31.87-14.54,53.5-45.18,56.46-79.95.13-1.52,1.42-2.65,2.97-2.61l8.83.04c11.01,0,19.98-8.96,19.98-19.98v-8.56c0-3.15-2.56-5.71-5.71-5.71s-5.71,2.56-5.71,5.71v8.56c0,4.72-3.84,8.56-8.56,8.56h-8.56c-1.53.09-3.14-1.03-3.27-2.57-3.62-42.7-35.46-78.4-77.44-86.83-1.54-.31-2.55-1.81-2.24-3.36.31-1.55,1.85-2.54,3.36-2.24,43.58,8.75,76.84,45.25,81.74,89.29h6.41c1.57,0,2.85-1.28,2.85-2.85v-8.56c0-6.3,5.12-11.41,11.41-11.41s11.41,5.12,11.41,11.41v8.56c0,14.16-11.52,25.68-25.68,25.68h-6.37c-3.91,35.11-25.82,65.91-57.84,81.23v15.8c0,9.44-7.68,17.12-17.12,17.12Z"/>
      <path class="cls-2" d="m282.08,202.65c-1.44,0-2.68-1.09-2.83-2.56-3.44-33.48-27.7-61.36-60.37-69.36-1.53-.38-2.47-1.92-2.09-3.45.37-1.53,1.91-2.46,3.45-2.09,35,8.58,61,38.45,64.68,74.32.16,1.57-.98,2.97-2.55,3.13-.09,0-.2.01-.3.01Z"/>
      <g>
        <path class="cls-3" d="m128.59,151.25h-5.81c-3.15,0-5.71,2.56-5.71,5.71v11.41c0,3.15,2.56,5.71,5.71,5.71h79.9c3.15,0,5.71-2.56,5.71-5.71v-11.41c0-3.15-2.56-5.71-5.71-5.71h-5.81"/>
        <path class="cls-2" d="m202.69,176.93h-79.9c-4.72,0-8.56-3.84-8.56-8.56v-11.41c0-4.72,3.84-8.56,8.56-8.56h5.81c1.58,0,2.85,1.28,2.85,2.85s-1.28,2.85-2.85,2.85h-5.81c-1.57,0-2.85,1.28-2.85,2.85v11.41c0,1.57,1.28,2.85,2.85,2.85h79.9c1.57,0,2.85-1.28,2.85-2.85v-11.41c0-1.57-1.28-2.85-2.85-2.85h-5.81c-1.58,0-2.85-1.28-2.85-2.85s1.28-2.85,2.85-2.85h5.81c4.72,0,8.56,3.84,8.56,8.56v11.41c0,4.72-3.84,8.56-8.56,8.56Z"/>
      </g>
      <g>
        <circle class="cls-3" cx="162.73" cy="105.59" r="45.66"/>
        <path class="cls-2" d="m162.73,154.1c-26.75,0-48.51-21.76-48.51-48.51s21.76-48.51,48.51-48.51,48.51,21.76,48.51,48.51-21.77,48.51-48.51,48.51Zm0-91.32c-23.6,0-42.81,19.2-42.81,42.81s19.2,42.81,42.81,42.81,42.81-19.2,42.81-42.81-19.2-42.81-42.81-42.81Z"/>
      </g>
      <path class="cls-2" d="m162.73,94.17c-1.58,0-2.85-1.28-2.85-2.85v-8.56c0-1.58,1.28-2.85,2.85-2.85s2.85,1.28,2.85,2.85v8.56c0,1.58-1.28,2.85-2.85,2.85Z"/>
      <path class="cls-2" d="m162.73,131.27c-1.58,0-2.85-1.28-2.85-2.85v-8.56c0-1.58,1.28-2.85,2.85-2.85s2.85,1.28,2.85,2.85v8.56c0,1.58-1.28,2.85-2.85,2.85Z"/>
      <path class="cls-2" d="m167.01,122.71h-15.7c-1.58,0-2.85-1.28-2.85-2.85s1.28-2.85,2.85-2.85h15.7c2.36,0,4.28-1.92,4.28-4.28s-1.92-4.28-4.28-4.28h-8.56c-5.51,0-9.99-4.48-9.99-9.99s4.48-9.99,9.99-9.99h12.84c1.58,0,2.85,1.28,2.85,2.85s-1.28,2.85-2.85,2.85h-12.84c-2.36,0-4.28,1.92-4.28,4.28s1.92,4.28,4.28,4.28h8.56c5.51,0,9.99,4.48,9.99,9.99s-4.48,9.99-9.99,9.99Z"/>
    </g>
  </g>
  <g id="Hat">
    <g>
      <path class="cls-3" d="m536.8,117.21c-10.8,11.76-26.25,19.18-43.47,19.18s-32.68-7.42-43.47-19.18l-107.42,30.16c-5.21,1.46-5.23,8.85-.02,10.33l143.54,41.01c4.82,1.38,9.93,1.38,14.75,0l143.54-41.01c5.21-1.49,5.19-8.87-.02-10.33l-107.42-30.16Zm-5.95,37.97c0,2.97-2.4,5.37-5.37,5.37h-64.44c-2.97,0-5.37-2.4-5.37-5.37v-5.37c0-2.97,2.4-5.37,5.37-5.37h64.44c2.97,0,5.37,2.4,5.37,5.37v5.37Z"/>
      <path class="cls-2" d="m493.25,300.28c-33.63,0-67.25-8.38-97.91-25.15-.86-.47-1.43-1.39-1.43-2.37v-42.96c0-.95.5-1.82,1.31-2.31s1.82-.5,2.66-.05c0,0,.03.02.03.02,59.7,32.65,130.98,32.65,190.68,0,.83-.46,1.85-.45,2.67.04.82.49,1.33,1.35,1.33,2.3v42.96c0,.98-.54,1.89-1.4,2.36-30.67,16.77-64.31,25.16-97.95,25.16Zm-93.96-29.12c58.99,31.66,129,31.66,187.94,0v-36.89c-59.18,30.73-128.78,30.73-187.94,0v36.89Z"/>
      <g>
        <path class="cls-3" d="m500.7,198.72c-4.82,1.38-9.93,1.38-14.75,0l-89.35-25.53v56.62l.03.02c60.21,32.93,133.04,32.93,193.25,0l.03-.02v-56.58l-89.22,25.49Z"/>
        <path class="cls-2" d="m493.25,257.33c-33.63,0-67.25-8.38-97.91-25.15-.86-.47-1.43-1.39-1.43-2.37v-56.62c0-.84.4-1.64,1.07-2.14.67-.51,1.55-.66,2.35-.44l89.35,25.53c4.34,1.24,8.93,1.24,13.28,0l89.22-25.49c.81-.23,1.68-.07,2.35.44.67.51,1.07,1.3,1.07,2.14v56.58c0,.98-.54,1.89-1.4,2.36-30.67,16.77-64.31,25.16-97.95,25.16Zm-93.96-29.12c58.99,31.66,129,31.66,187.94,0v-51.42l-85.79,24.51h0c-5.31,1.52-10.92,1.52-16.22,0l-85.92-24.55v51.46Zm101.41-29.49h.05-.05Z"/>
      </g>
      <path class="cls-2" d="m635.63,245.13c-1.48,0-2.68-1.2-2.68-2.68v-80.55c0-1.48,1.2-2.68,2.68-2.68s2.68,1.2,2.68,2.68v80.55c0,1.48-1.2,2.68-2.68,2.68Z"/>
      <path class="cls-2" d="m493.33,202.44c-2.73,0-5.46-.38-8.11-1.14l-143.55-41.01c-3.5-1-5.85-4.12-5.84-7.76s2.37-6.75,5.88-7.74l107.43-30.16c1.43-.4,2.91.43,3.31,1.86.4,1.43-.43,2.91-1.86,3.31l-107.43,30.16c-1.81.51-1.96,2.1-1.96,2.58s.14,2.07,1.95,2.59l143.55,41.01c4.34,1.24,8.94,1.24,13.28,0l143.55-41.01c1.81-.52,1.95-2.11,1.95-2.59s-.14-2.07-1.96-2.58l-107.43-30.16c-1.43-.4-2.26-1.88-1.86-3.31.4-1.43,1.9-2.26,3.31-1.86l107.43,30.16c3.51.99,5.87,4.1,5.88,7.74s-2.34,6.76-5.84,7.76l-143.55,41.01c-2.65.76-5.38,1.14-8.11,1.14Z"/>
      <path class="cls-2" d="m643.68,271.97h-16.11c-.76,0-1.48-.32-1.99-.88-.51-.56-.76-1.31-.68-2.07l2.68-26.85c.14-1.37,1.29-2.42,2.67-2.42h10.74c1.38,0,2.54,1.05,2.67,2.42l2.68,26.85c.08.76-.17,1.51-.68,2.07-.51.56-1.23.88-1.99.88Zm-13.14-5.37h10.17l-2.15-21.48h-5.88l-2.15,21.48Z"/>
      <path class="cls-2" d="m525.48,163.24h-64.44c-4.44,0-8.05-3.61-8.05-8.05v-5.37c0-4.44,3.61-8.05,8.05-8.05h64.44c4.44,0,8.05,3.61,8.05,8.05v5.37c0,4.44-3.61,8.05-8.05,8.05Zm-64.44-16.11c-1.48,0-2.68,1.2-2.68,2.68v5.37c0,1.48,1.2,2.68,2.68,2.68h64.44c1.48,0,2.68-1.2,2.68-2.68v-5.37c0-1.48-1.2-2.68-2.68-2.68h-64.44Z"/>
      <path class="cls-2" d="m353.65,80h-5.37c-1.48,0-2.68-1.2-2.68-2.68s1.2-2.68,2.68-2.68h5.37c1.48,0,2.68,1.2,2.68,2.68s-1.2,2.68-2.68,2.68Z"/>
      <path class="cls-2" d="m423.46,80h-59.07c-1.48,0-2.68-1.2-2.68-2.68s1.2-2.68,2.68-2.68h59.07c1.48,0,2.68,1.2,2.68,2.68s-1.2,2.68-2.68,2.68Z"/>
      <path class="cls-2" d="m434.19,96.11h-59.07c-1.48,0-2.68-1.2-2.68-2.68s1.2-2.68,2.68-2.68h59.07c1.48,0,2.68,1.2,2.68,2.68s-1.2,2.68-2.68,2.68Z"/>
      <path class="cls-2" d="m611.4,96.11h-59.07c-1.48,0-2.68-1.2-2.68-2.68s1.2-2.68,2.68-2.68h59.07c1.48,0,2.68,1.2,2.68,2.68s-1.2,2.68-2.68,2.68Z"/>
      <path class="cls-2" d="m638.25,80h-5.37c-1.48,0-2.68-1.2-2.68-2.68s1.2-2.68,2.68-2.68h5.37c1.48,0,2.68,1.2,2.68,2.68s-1.2,2.68-2.68,2.68Z"/>
      <path class="cls-2" d="m622.14,80h-59.07c-1.48,0-2.68-1.2-2.68-2.68s1.2-2.68,2.68-2.68h59.07c1.48,0,2.68,1.2,2.68,2.68s-1.2,2.68-2.68,2.68Z"/>
      <g>
        <circle class="cls-3" cx="493.33" cy="77.32" r="42.96"/>
        <path class="cls-2" d="m493.33,122.96c-25.17,0-45.64-20.48-45.64-45.64s20.48-45.64,45.64-45.64,45.64,20.48,45.64,45.64-20.48,45.64-45.64,45.64Zm0-85.92c-22.21,0-40.27,18.07-40.27,40.27s18.07,40.27,40.27,40.27,40.27-18.07,40.27-40.27-18.07-40.27-40.27-40.27Z"/>
      </g>
      <path class="cls-2" d="m493.33,66.58c-1.48,0-2.68-1.2-2.68-2.68v-8.05c0-1.48,1.2-2.68,2.68-2.68s2.68,1.2,2.68,2.68v8.05c0,1.48-1.2,2.68-2.68,2.68Z"/>
      <path class="cls-2" d="m493.33,101.48c-1.48,0-2.68-1.2-2.68-2.68v-8.05c0-1.48,1.2-2.68,2.68-2.68s2.68,1.2,2.68,2.68v8.05c0,1.48-1.2,2.68-2.68,2.68Z"/>
      <path class="cls-2" d="m497.36,93.43h-14.77c-1.48,0-2.68-1.2-2.68-2.68s1.2-2.68,2.68-2.68h14.77c2.22,0,4.03-1.81,4.03-4.03s-1.81-4.03-4.03-4.03h-8.06c-5.18,0-9.39-4.22-9.39-9.4s4.21-9.4,9.39-9.4h12.08c1.48,0,2.68,1.2,2.68,2.68s-1.2,2.68-2.68,2.68h-12.08c-2.22,0-4.02,1.81-4.02,4.03s1.81,4.03,4.02,4.03h8.06c5.18,0,9.4,4.22,9.4,9.4s-4.22,9.4-9.4,9.4Z"/>
    </g>
  </g>
  <g id="Name">
    <text class="cls-4" transform="translate(0 401.04)"><tspan x="0" y="0">Mone</tspan><tspan class="cls-5" x="221.93" y="0">y</tspan><tspan class="cls-1" x="265.19" y="0"> </tspan><tspan x="283.67" y="0">Wise Kids</tspan></text>
  </g>
</svg>